<?xml version="1.0" encoding="utf-8"?>
<svg id="master-artboard" viewBox="0 0 693.9028930664062 779.62109375" version="1.1" xmlns="http://www.w3.org/2000/svg" x="0px" y="0px" style="enable-background:new 0 0 1400 980;" width="693.9028930664062px" height="779.62109375px"><rect id="ee-background" x="0" y="0" width="693.9028930664062" height="779.62109375" style="fill: white; fill-opacity: 0; pointer-events: none;"/><defs><style id="ee-google-fonts">@import url(https://fonts.googleapis.com/css?family=Open+Sans:300,300italic,400,400italic,600,600italic,700,700italic,800,800italic);</style></defs><path d="M 82.87712860107422 10.539681434631348" style="fill: rgb(0, 0, 0); fill-opacity: 1; stroke: rgb(0, 0, 0); stroke-opacity: 1; stroke-width: 0; paint-order: fill;" transform="matrix(7.8400001525878915, 0, 0, 7.8400001525878915, -583.1350763110385, -6.361236572265568)"/><path d="M 924.9375 597.6500854492188 L 911.7474975585938 597.6500854492188 L 884.8875122070312 553.6900634765625 L 857.5374755859375 597.6500854492188 L 845.2374877929688 597.6500854492188 L 878.45751953125 545.4201049804688 L 847.4874877929688 497.7100830078125 L 860.3375244140625 497.7100830078125 L 885.157470703125 537.2901000976562 L 910.177490234375 497.7100830078125 L 922.5474853515625 497.7100830078125 L 891.5775146484375 545.0100708007812 L 924.9375 597.6500854492188 ZM 973.9022827148438 597.6500854492188 L 962.822265625 597.6500854492188 L 962.822265625 526.4201049804688 C 962.822265625 520.493408203125 963.005615234375 514.88671875 963.3722534179688 509.60009765625 C 962.4122924804688 510.5600891113281 961.34228515625 511.56341552734375 960.1622924804688 512.610107421875 C 958.9755859375 513.65673828125 953.5523071289062 518.10009765625 943.8922729492188 525.9400634765625 L 937.8722534179688 518.1500854492188 L 964.332275390625 497.7100830078125 L 973.9022827148438 497.7100830078125 L 973.9022827148438 597.6500854492188 ZM 1077.1351318359375 597.6500854492188 L 1011.4451293945312 597.6500854492188 L 1011.4451293945312 587.8700561523438 L 1037.755126953125 561.4201049804688 C 1045.78173828125 553.3067626953125 1051.0684814453125 547.5200805664062 1053.6151123046875 544.06005859375 C 1056.16845703125 540.5934448242188 1058.0850830078125 537.2200927734375 1059.3651123046875 533.9400634765625 C 1060.638427734375 530.6600952148438 1061.275146484375 527.1267700195312 1061.275146484375 523.340087890625 C 1061.275146484375 518.013427734375 1059.658447265625 513.7867431640625 1056.425048828125 510.66009521484375 C 1053.18505859375 507.54010009765625 1048.695068359375 505.9801025390625 1042.955078125 505.9801025390625 C 1038.8084716796875 505.9801025390625 1034.87841796875 506.6634216308594 1031.1651611328125 508.03009033203125 C 1027.4517822265625 509.3967590332031 1023.3151245117188 511.8800964355469 1018.755126953125 515.4801025390625 L 1012.735107421875 507.76007080078125 C 1021.9417724609375 500.10009765625 1031.9683837890625 496.27008056640625 1042.8150634765625 496.27008056640625 C 1052.2017822265625 496.27008056640625 1059.561767578125 498.67340087890625 1064.8951416015625 503.4801025390625 C 1070.2283935546875 508.2934265136719 1072.8951416015625 514.75341796875 1072.8951416015625 522.860107421875 C 1072.8951416015625 529.2000732421875 1071.118408203125 535.4667358398438 1067.5650634765625 541.6600952148438 C 1064.01171875 547.860107421875 1057.3583984375 555.7000732421875 1047.6051025390625 565.1800537109375 L 1025.72509765625 586.580078125 L 1025.72509765625 587.1200561523438 L 1077.1351318359375 587.1200561523438 L 1077.1351318359375 597.6500854492188 Z" transform="matrix(1.5516314506530762, 0, 0, 1.5516314506530762, -1147.932861328125, -502.9547424316406)" style="fill: rgb(0, 0, 0); white-space: pre;"/><path style="font-size: medium; font-style: normal; font-variant-ligatures: normal; font-variant-caps: normal; font-weight: normal; font-stretch: normal; text-indent: 0px; text-align: start; text-decoration: none; line-height: normal; letter-spacing: normal; word-spacing: normal; text-transform: none; direction: ltr; writing-mode: lr-tb; text-anchor: start; baseline-shift: baseline; opacity: 1; color: rgb(0, 0, 0); fill: rgb(0, 0, 0); fill-opacity: 1; stroke: none; stroke-width: 4; marker: none; visibility: visible; display: inline; overflow: visible; font-family: Sans;" d="M 23 6 C 18.048595 6 14 10.048595 14 15 L 14 85 C 14 89.951405 18.048595 94 23 94 L 77 94 C 81.951405 94 86 89.951405 86 85 L 86 25 C 86.00528028232709 24.429270464541034 85.76649240757912 23.883469608783894 85.34375 23.5 L 66.34375 6.5 C 65.97300914406895 6.173008947514599 65.49431347831391 5.9948896360997885 65 6 L 23 6 Z M 23 10 L 63 10 L 63 23 C 63 24.133792 63.445988 24.943553 64.09375 25.65625 C 64.741512 26.368947 65.736255 27 67 27 L 82 27 L 82 85 C 82 87.804595 79.804595 90 77 90 L 23 90 C 20.195405 90 18 87.804595 18 85 L 18 15 C 18 12.195405 20.195405 10 23 10 Z M 67 12.5 L 78.75 23 L 67 23 L 67 12.5 Z M 26.8125 58 C 25.272884848571334 58.07186086709954 24.38841704026765 59.783456200952834 25.220457952428163 61.08087160059171 C 25.60676394479934 61.68324503698165 26.285189707843745 62.03365000501624 27 62 L 73 62 C 74.53960071787131 62.021762894035874 75.52541019337926 60.36869803614862 74.77445705353853 59.02448325576937 C 74.41606737910237 58.38296160554421 73.73476888339077 57.98961373740316 73 58 L 27 58 C 26.93753437049269 57.99706899522187 26.87496562950731 57.99706899522187 26.8125 58 Z M 26.8125 68 C 25.272884848571334 68.07186086709955 24.38841704026765 69.78345620095283 25.220457952428163 71.0808716005917 C 25.60676394479934 71.68324503698165 26.285189707843745 72.03365000501624 27 72 L 45 72 C 46.53960071785593 72.02176834088554 47.525416088327866 70.368706887276 46.774467665605016 69.02448938348523 C 46.4160777674146 68.3829620032391 45.73477395761164 67.98961106616956 45 68 L 27 68 C 26.937534367369718 67.99706899507534 26.874965632630282 67.99706899507534 26.8125 68 Z M 54.8125 68 C 53.27288484857134 68.07186086709955 52.388417040267655 69.78345620095283 53.22045795242816 71.0808716005917 C 53.60676394479934 71.68324503698165 54.28518970784374 72.03365000501624 55 72 L 73 72 C 74.53960071785593 72.02176834088554 75.52541608832786 70.368706887276 74.77446766560502 69.02448938348523 C 74.41607776741459 68.3829620032391 73.73477395761164 67.98961106616956 73 68 L 55 68 C 54.93753436736972 67.99706899507534 54.87496563263028 67.99706899507534 54.8125 68 Z" transform="matrix(7.84000015258789, 0, 0, 7.84000015258789, -43.138250494913564, -1.577784538269043)"/><path d="M 11.069832801818848 61.11581802368164" style="fill: rgb(0, 0, 0); fill-opacity: 1; stroke: rgb(0, 0, 0); stroke-opacity: 1; stroke-width: 0; paint-order: fill;" transform="matrix(7.8400001525878915, 0, 0, 7.8400001525878915, -20.165805638715938, -6.361236572265568)"/></svg>